<?xml version="1.0" encoding="UTF-8" standalone="no"?>
<svg
   id="Layer_1"
   data-name="Layer 1"
   viewBox="0 0 512 512"
   version="1.1"
   sodipodi:docname="c40a9e1f-308b-48f1-b49e-14ef0e05af70.svg"
   inkscape:version="1.1.2 (0a00cf5339, 2022-02-04)"
   xmlns:inkscape="http://www.inkscape.org/namespaces/inkscape"
   xmlns:sodipodi="http://sodipodi.sourceforge.net/DTD/sodipodi-0.dtd"
   xmlns="http://www.w3.org/2000/svg"
   xmlns:svg="http://www.w3.org/2000/svg"
   xmlns:rdf="http://www.w3.org/1999/02/22-rdf-syntax-ns#"
   xmlns:cc="http://creativecommons.org/ns#"
   xmlns:dc="http://purl.org/dc/elements/1.1/">
  <sodipodi:namedview
     id="namedview27"
     pagecolor="#ffffff"
     bordercolor="#999999"
     borderopacity="1"
     inkscape:pageshadow="0"
     inkscape:pageopacity="0"
     inkscape:pagecheckerboard="0"
     showgrid="false"
     inkscape:zoom="1.5097656"
     inkscape:cx="255.66882"
     inkscape:cy="256"
     inkscape:window-width="1920"
     inkscape:window-height="1011"
     inkscape:window-x="0"
     inkscape:window-y="0"
     inkscape:window-maximized="1"
     inkscape:current-layer="Layer_1" />
  <defs
     id="defs4">
    <style
       id="style2">.cls-1{fill:#d9e4e8;}.cls-2{fill:#9bbdc6;}.cls-3{fill:#141f38;}</style>
  </defs>
  <title
     id="title6">checklist-filled</title>
  <rect
     class="cls-1"
     x="64"
     y="51.2"
     width="384"
     height="448"
     rx="51.2"
     ry="51.2"
     id="rect8"
     style="fill:#cfe7ff;fill-opacity:1" />
  <path
     class="cls-2"
     d="M313.6,38.4h-32a25.6,25.6,0,0,1-51.2,0h-32a19.22,19.22,0,0,0-19.2,19.2V96a19.22,19.22,0,0,0,19.2,19.2H313.6A19.22,19.22,0,0,0,332.8,96V57.6A19.22,19.22,0,0,0,313.6,38.4Z"
     id="path10"
     style="fill:#cfe7ff;fill-opacity:1" />
  <path
     class="cls-3"
     d="M358.4,204.8H256a12.8,12.8,0,0,0,0,25.6H358.4a12.8,12.8,0,1,0,0-25.6Z"
     id="path12"
     style="fill:#cc3300;fill-opacity:1" />
  <path
     class="cls-3"
     d="M211.9,181.35a12.8,12.8,0,0,0-17.75,3.55l-19.33,29-15.49-7.75a12.8,12.8,0,0,0-11.45,22.9l25.6,12.8a12.8,12.8,0,0,0,16.38-4.35l25.6-38.4A12.8,12.8,0,0,0,211.9,181.35Z"
     id="path14"
     style="fill:#cc3300;fill-opacity:1" />
  <path
     class="cls-3"
     d="M358.4,294.4H256a12.8,12.8,0,0,0,0,25.6H358.4a12.8,12.8,0,0,0,0-25.6Z"
     id="path16"
     style="fill:#cc3300;fill-opacity:1" />
  <path
     class="cls-3"
     d="M211.9,270.95a12.8,12.8,0,0,0-17.75,3.55l-19.33,29-15.49-7.75a12.8,12.8,0,0,0-11.45,22.9l25.6,12.8a12.8,12.8,0,0,0,16.38-4.35l25.6-38.4A12.8,12.8,0,0,0,211.9,270.95Z"
     id="path18"
     style="fill:#cc3300;fill-opacity:1" />
  <path
     class="cls-3"
     d="M358.4,384H256a12.8,12.8,0,0,0,0,25.6H358.4a12.8,12.8,0,0,0,0-25.6Z"
     id="path20"
     style="fill:#cc3300;fill-opacity:1" />
  <path
     class="cls-3"
     d="M211.9,360.55a12.8,12.8,0,0,0-17.75,3.55l-19.33,29-15.49-7.75a12.8,12.8,0,0,0-11.45,22.9l25.6,12.8a12.8,12.8,0,0,0,16.38-4.35l25.6-38.4A12.8,12.8,0,0,0,211.9,360.55Z"
     id="path22"
     style="fill:#cc3300;fill-opacity:1" />
  <path
     class="cls-3"
     d="M396.8,38.4H339A31.89,31.89,0,0,0,313.6,25.6H292.17a38.35,38.35,0,0,0-72.34,0H198.4A31.89,31.89,0,0,0,173,38.4H115.2a64.19,64.19,0,0,0-64,64V448a64.19,64.19,0,0,0,64,64H396.8a64.19,64.19,0,0,0,64-64V102.4A64.19,64.19,0,0,0,396.8,38.4ZM256,25.6a12.8,12.8,0,1,1-12.8,12.8A12.81,12.81,0,0,1,256,25.6Zm-64,32a6.49,6.49,0,0,1,6.4-6.4h21.43a38.35,38.35,0,0,0,72.34,0H313.6a6.49,6.49,0,0,1,6.4,6.4V96a6.49,6.49,0,0,1-6.4,6.4H198.4A6.49,6.49,0,0,1,192,96ZM435.2,448a38.44,38.44,0,0,1-38.4,38.4H115.2A38.44,38.44,0,0,1,76.8,448V102.4A38.44,38.44,0,0,1,115.2,64h51.2V96a32.09,32.09,0,0,0,32,32H313.6a32.09,32.09,0,0,0,32-32V64h51.2a38.44,38.44,0,0,1,38.4,38.4Z"
     id="path24"
     style="fill:#cc3300;fill-opacity:1" />
  <metadata
     id="metadata844">
    <rdf:RDF>
      <cc:Work
         rdf:about="">
        <dc:title>checklist-filled</dc:title>
      </cc:Work>
    </rdf:RDF>
  </metadata>
</svg>
